<svg width="100" height="46" viewBox="0 0 100 46" fill="none" xmlns="http://www.w3.org/2000/svg">
<g clip-path="url(#clip0_22_363)" filter="url(#filter0_d_22_363)">
<path d="M90.8141 36.8682L77.3318 0.0322557L77.3226 0.00787354H77.0566L74.2802 7.57753L69.2258 21.3583L69.214 21.3474C67.4622 19.8135 64.9908 18.8546 61.8782 18.4976L60.9289 18.4003L61.8707 18.2805C67.0036 17.3652 70.454 14.1482 70.454 10.2723C70.454 4.95736 65.4165 1.24757 58.2006 1.24757H43.1869V1.51668H47.5494V28.98L36.9544 0.0321654L36.9448 0.00787354H36.6788L33.9024 7.57753L23.194 36.7734L23.1281 36.781C22.9451 36.8034 22.7641 36.8212 22.585 36.8346C22.3157 36.8556 22.0479 36.8681 21.7792 36.8681H10.9593L31.5265 1.51659L31.6794 1.25091H6.52491V12.1867H6.79182C6.83914 6.86007 9.96517 1.51659 16.8719 1.51659H25.2043L4.48169 37.133H32.399V26.6557H32.1321C32.0957 31.2985 29.4436 35.7082 23.6764 36.7039L23.493 36.7349L27.8853 24.7547H40.1892L44.6227 36.8682H40.2492V37.1331H57.415V36.8682H53.0228V18.5956H58.0908C63.2482 18.5956 66.2062 20.8821 66.2062 24.8669V28.1082C66.2062 28.4653 66.2306 28.9875 66.2577 29.4242V29.4401L63.5337 36.8665H59.9751V37.1314H67.3413V36.8665H63.821L66.3016 30.104C66.3067 30.1694 66.3093 30.2088 66.3093 30.2088L66.3777 30.8181L66.4436 31.2212C66.8575 33.7149 67.8186 35.548 69.2993 36.6695L69.5122 36.8229C70.6372 37.5991 72.0352 37.9922 73.6695 37.9922C75.8344 37.9922 77.2779 37.4566 78.4697 36.196L78.3134 36.0501C77.2153 37.0559 76.2939 37.4633 75.1393 37.4633C73.172 37.4633 72.1425 35.0954 72.1425 32.7602V28.2188C72.1529 27.092 71.9751 25.9712 71.6162 24.9021L71.5673 24.7613V24.7563H80.5668L85.0003 36.8699H80.6268V37.1347H95.4817V36.8699L90.8141 36.8682ZM27.9832 24.4898L34.0444 7.96485L40.0921 24.4898H27.9832ZM53.0255 18.3299V1.51659H56.8939C62.0615 1.51659 64.7897 4.56507 64.7897 10.3294C64.7897 16.4599 63.2236 18.3299 58.0908 18.3299H53.0255ZM71.4624 24.4898L71.4362 24.4244C71.0363 23.4578 70.454 22.5759 69.7207 21.826L69.4673 21.5745L69.4403 21.5494L74.4186 7.96485L80.4663 24.4898H71.4624Z" fill="white"/>
</g>
<defs>
<filter id="filter0_d_22_363" x="0.481689" y="0" width="99" height="46" filterUnits="userSpaceOnUse" color-interpolation-filters="sRGB">
<feFlood flood-opacity="0" result="BackgroundImageFix"/>
<feColorMatrix in="SourceAlpha" type="matrix" values="0 0 0 0 0 0 0 0 0 0 0 0 0 0 0 0 0 0 127 0" result="hardAlpha"/>
<feOffset dy="4"/>
<feGaussianBlur stdDeviation="2"/>
<feComposite in2="hardAlpha" operator="out"/>
<feColorMatrix type="matrix" values="0 0 0 0 0 0 0 0 0 0 0 0 0 0 0 0 0 0 0.25 0"/>
<feBlend mode="normal" in2="BackgroundImageFix" result="effect1_dropShadow_22_363"/>
<feBlend mode="normal" in="SourceGraphic" in2="effect1_dropShadow_22_363" result="shape"/>
</filter>
<clipPath id="clip0_22_363">
<rect width="91" height="38" fill="white" transform="translate(4.48169)"/>
</clipPath>
</defs>
</svg>
